{
	"asset":{
		"generator":"Khronos glTF Blender I/O v5.2.40",
		"version":"2.0"
	},
	"extensionsUsed":[
		"KHR_materials_specular"
	],
	"scene":0,
	"scenes":[
		{
			"name":"Scene",
			"nodes":[
				0
			]
		}
	],
	"nodes":[
		{
			"mesh":0,
			"name":"BAKED_Diorama"
		}
	],
	"materials":[
		{
			"doubleSided":true,
			"emissiveFactor":[
				1,
				1,
				1
			],
			"emissiveTexture":{
				"index":0
			},
			"extensions":{
				"KHR_materials_specular":{
					"specularFactor":0
				}
			},
			"name":"MAT_Baked",
			"pbrMetallicRoughness":{
				"baseColorFactor":[
					0,
					0,
					0,
					1
				],
				"metallicFactor":0
			}
		}
	],
	"meshes":[
		{
			"name":"BAKED_Diorama",
			"primitives":[
				{
					"attributes":{
						"POSITION":0,
						"NORMAL":1,
						"TEXCOORD_0":2
					},
					"indices":3,
					"material":0
				}
			]
		}
	],
	"textures":[
		{
			"sampler":0,
			"source":0
		}
	],
	"images":[
		{
			"mimeType":"image/png",
			"name":"bake_diorama_combined_4096_filmic",
			"uri":"bake_diorama_combined_4096_filmic.png"
		}
	],
	"accessors":[
		{
			"bufferView":0,
			"componentType":5126,
			"count":10527,
			"max":[
				6.118824481964111,
				5.173725128173828,
				5.949999809265137
			],
			"min":[
				-5.844958305358887,
				-1.1151295900344849,
				-5.955488204956055
			],
			"type":"VEC3"
		},
		{
			"bufferView":1,
			"componentType":5126,
			"count":10527,
			"type":"VEC3"
		},
		{
			"bufferView":2,
			"componentType":5126,
			"count":10527,
			"type":"VEC2"
		},
		{
			"bufferView":3,
			"componentType":5123,
			"count":15294,
			"type":"SCALAR"
		}
	],
	"bufferViews":[
		{
			"buffer":0,
			"byteLength":126324,
			"byteOffset":0,
			"target":34962
		},
		{
			"buffer":0,
			"byteLength":126324,
			"byteOffset":126324,
			"target":34962
		},
		{
			"buffer":0,
			"byteLength":84216,
			"byteOffset":252648,
			"target":34962
		},
		{
			"buffer":0,
			"byteLength":30588,
			"byteOffset":336864,
			"target":34963
		}
	],
	"samplers":[
		{
			"magFilter":9729,
			"minFilter":9987
		}
	],
	"buffers":[
		{
			"byteLength":367452,
			"uri":"japanese_portal_diorama.bin"
		}
	]
}
